<?xml version="1.0" standalone="no"?>
<!DOCTYPE svg PUBLIC "-//W3C//DTD SVG 20010904//EN"
 "http://www.w3.org/TR/2001/REC-SVG-20010904/DTD/svg10.dtd">
<svg version="1.0" xmlns="http://www.w3.org/2000/svg"
 width="1123.000000pt" height="1123.000000pt" viewBox="0 0 1123.000000 1123.000000"
 preserveAspectRatio="xMidYMid meet">
<metadata>
Created by potrace 1.14, written by Peter Selinger 2001-2017
</metadata>
<g transform="translate(0.000000,1123.000000) scale(0.100000,-0.100000)"
fill="#000000" stroke="none">
<path d="M5498 10675 c-2 -1 -37 -5 -78 -9 -41 -3 -86 -8 -100 -11 -14 -2 -47
-6 -73 -9 -27 -3 -52 -8 -57 -11 -5 -3 -21 -7 -37 -9 -97 -13 -321 -80 -443
-133 -50 -22 -231 -112 -255 -126 -231 -143 -353 -238 -540 -422 -92 -91 -239
-258 -290 -329 -11 -16 -25 -33 -30 -40 -10 -10 -31 -40 -65 -91 -8 -13 -30
-44 -47 -69 -18 -26 -33 -49 -33 -51 0 -2 -16 -27 -35 -57 -20 -29 -45 -71
-56 -93 -11 -22 -29 -55 -40 -73 -36 -61 -119 -229 -119 -241 0 -6 -4 -11 -10
-11 -5 0 -10 -7 -10 -15 0 -9 -10 -35 -22 -58 -12 -23 -23 -47 -24 -53 -1 -7
-13 -35 -28 -63 -14 -28 -23 -51 -21 -51 4 0 -14 -48 -35 -95 -5 -11 -21 -55
-35 -98 -14 -43 -30 -88 -34 -100 -16 -41 -47 -147 -56 -191 -3 -16 -8 -33
-11 -38 -3 -5 -15 -46 -26 -91 -11 -45 -21 -90 -24 -99 -7 -31 -11 -52 -20
-98 -9 -50 -10 -58 -14 -65 -4 -8 -6 -16 -15 -75 -5 -30 -10 -59 -11 -65 -1
-5 -3 -12 -4 -15 -1 -3 -3 -18 -5 -35 -2 -16 -6 -43 -9 -60 -3 -16 -8 -47 -11
-67 -3 -21 -7 -53 -10 -72 -25 -179 -35 -708 -40 -2146 -2 -476 -4 -867 -5
-870 -1 -3 -1 -9 0 -15 7 -30 5 -185 -3 -185 -4 0 -5 -6 0 -12 9 -16 11 -245
2 -260 -4 -6 -3 -22 2 -35 5 -15 5 -23 -2 -23 -6 0 -7 -5 -3 -12 11 -17 11
-188 1 -188 -5 0 -5 -5 -1 -12 11 -17 11 -228 1 -228 -5 0 -5 -5 -1 -12 10
-17 11 -308 1 -308 -5 0 -5 -5 -1 -12 10 -17 11 -308 1 -308 -5 0 -5 -5 -1
-12 10 -17 11 -308 1 -308 -5 0 -5 -5 -1 -12 10 -17 11 -308 1 -308 -5 0 -5
-5 -1 -12 10 -17 11 -308 1 -308 -5 0 -5 -5 -1 -12 10 -17 11 -308 1 -308 -5
0 -5 -5 -1 -12 10 -17 11 -308 1 -308 -5 0 -5 -5 -1 -12 11 -17 11 -278 1
-278 -5 0 -5 -5 -1 -12 11 -17 11 -58 1 -58 -6 0 -6 -5 0 -12 5 -7 8 -49 6
-93 -3 -103 -3 -89 0 -175 2 -41 0 -83 -5 -92 -7 -14 -4 -18 9 -19 10 0 1346
-1 2968 -1 l2950 -1 2 654 c1 360 3 712 5 782 2 71 1 131 -2 134 -3 2 -6 288
-6 633 -1 346 -4 635 -7 643 -3 8 -1 20 3 27 5 7 4 23 0 36 -5 12 -6 25 -3 28
8 8 8 74 1 82 -3 3 -2 20 2 39 4 19 5 36 3 39 -3 3 -5 24 -4 48 3 61 3 59 -1
101 -3 20 0 37 4 37 5 0 6 4 3 10 -10 16 -12 80 -3 80 5 0 6 5 2 12 -4 7 -8
31 -8 53 0 22 4 46 8 53 4 7 4 12 -1 12 -4 0 -8 25 -8 55 0 30 4 55 8 55 5 0
5 5 1 12 -10 17 -12 368 -2 374 5 3 5 11 1 17 -4 7 -8 298 -9 647 -2 721 -13
1918 -19 2090 -8 239 -22 487 -29 555 -3 28 -9 73 -12 100 -2 28 -7 61 -10 75
-3 14 -7 39 -10 55 -4 26 -11 56 -40 195 -3 14 -17 68 -31 120 -14 52 -27 106
-30 119 -2 13 -8 32 -13 42 -6 10 -10 27 -10 38 0 12 -4 29 -9 39 -5 9 -15 37
-21 62 -7 25 -17 59 -24 75 -6 17 -11 33 -12 38 -1 4 -3 9 -4 12 -1 3 -3 8 -4
13 -7 31 -83 233 -113 302 -30 66 -114 245 -124 264 -6 10 -20 35 -32 55 -11
20 -27 47 -34 61 -8 14 -23 39 -34 55 -10 17 -22 38 -25 48 -4 9 -10 17 -14
17 -4 0 -10 8 -14 18 -6 18 -24 48 -41 68 -5 6 -19 24 -30 40 -98 137 -148
196 -280 329 -109 110 -181 174 -259 230 -16 11 -33 25 -40 30 -38 34 -316
200 -316 189 0 -3 -12 3 -27 14 -16 11 -39 23 -53 27 -14 4 -47 18 -75 30
-118 54 -308 109 -485 141 -19 4 -44 8 -55 11 -21 3 -54 9 -115 17 -36 5 -117
14 -204 23 -55 5 -483 12 -488 8z"/>
</g>
</svg>
